<?xml version="1.0" encoding="UTF-8"?>
<svg width="32px" height="32px" viewBox="0 0 32 32" version="1.1" xmlns="http://www.w3.org/2000/svg">
    <g stroke="none" stroke-width="1" fill="none" fill-rule="evenodd">
        <circle fill="#F7931A" cx="16" cy="16" r="16"/>
        <path d="M23.189,14.02 C23.503,11.924 21.906,10.797 19.724,10.045 L20.432,7.204 L18.704,6.779 L18.017,9.541 C17.581,9.434 17.131,9.334 16.683,9.235 L17.376,6.453 L15.649,6.028 L14.94,8.869 C14.575,8.789 14.216,8.71 13.867,8.627 L13.868,8.623 L11.44,8.027 L10.984,9.874 C10.984,9.874 12.258,10.167 12.231,10.184 C12.883,10.345 13.008,10.788 12.984,11.142 L12.183,14.332 C12.227,14.343 12.283,14.359 12.346,14.382 L12.181,14.338 L11.054,18.861 C10.97,19.064 10.764,19.371 10.305,19.26 C10.322,19.283 9.058,18.943 9.058,18.943 L8.204,20.915 L10.516,21.47 C10.916,21.569 11.31,21.673 11.695,21.77 L10.981,24.645 L12.708,25.07 L13.416,22.228 C13.872,22.346 14.314,22.455 14.746,22.558 L14.041,25.386 L15.769,25.811 L16.483,22.943 C19.421,23.477 21.637,23.255 22.475,20.577 C23.158,18.411 22.347,17.167 20.74,16.361 C21.924,16.085 22.824,15.194 23.189,14.02 L23.189,14.02 Z M19.237,19.525 C18.757,21.691 15.154,20.601 14.03,20.316 L14.977,16.507 C16.1,16.794 19.744,17.252 19.237,19.525 Z M19.717,14.002 C19.278,15.987 16.276,15.034 15.337,14.795 L16.191,11.338 C17.13,11.577 20.179,11.919 19.717,14.002 Z" fill="#FFFFFF"/>
    </g>
</svg> 